<?xml version="1.0" encoding="UTF-8" standalone="no"?>
<!DOCTYPE svg PUBLIC "-//W3C//DTD SVG 1.1//EN" "http://www.w3.org/Graphics/SVG/1.1/DTD/svg11.dtd">
<svg width="100%" height="100%" viewBox="0 0 1280 800" version="1.1" xmlns="http://www.w3.org/2000/svg" xmlns:xlink="http://www.w3.org/1999/xlink" xml:space="preserve" xmlns:serif="http://www.serif.com/" style="fill-rule:evenodd;clip-rule:evenodd;stroke-linejoin:round;stroke-miterlimit:2;">
    <g transform="matrix(0.99969,0,0,0.999667,0.124168,0.131584)">
        <path d="M800.041,600.005L800.041,600.068L400.031,600.068L400.031,200.058L794.964,200.058C796.651,200.016 798.35,199.846 800.041,199.995C910.819,209.74 1012.4,290.774 1000.05,400C987.638,509.686 910.427,600.005 800.041,600.005Z" style="fill-opacity:0;"/>
        <path d="M794.878,196.6L800.335,196.657C821.615,198.869 842.452,203.844 862.314,210.777C893.156,221.541 921.599,237.367 944.693,257.869C985.121,293.759 1009.41,343.209 1003.17,400.354C997.225,455.239 975.213,505.393 941.073,542.24C905.696,580.422 857.304,604.335 800.104,604.628L800.041,604.692C800.041,604.692 700.04,605.223 600.036,605.569C500.033,605.916 400.031,606.078 400.031,606.078C396.712,606.078 394.021,603.387 394.021,600.068C394.021,600.068 394.089,581.374 394.49,552.067C394.963,517.566 396.129,468.389 396.859,417.664C397.136,398.442 397.451,379.005 397.502,360.062C397.732,275.029 396.582,200.058 396.582,200.058C396.582,198.153 398.126,196.609 400.031,196.609C400.031,196.609 560.148,195.134 676.484,194.696C682.95,194.671 689.281,194.642 695.441,194.684C705.417,194.752 714.943,194.93 723.876,195.088C765.94,195.834 794.792,196.595 794.878,196.6ZM800.041,595.445L800.041,595.382C854.756,595.645 901.231,573.141 935.413,536.945C968.914,501.47 990.641,452.903 996.919,399.646C1003.38,344.495 980.166,296.546 941.316,261.651C918.812,241.438 891.148,225.352 860.795,215.23C841.268,208.718 820.627,204.837 799.747,203.333L795.051,203.516C795.022,203.517 794.993,203.517 794.964,203.517C794.964,203.517 766.066,204.28 723.876,205.029C714.943,205.187 705.417,205.365 695.441,205.433C689.281,205.475 682.95,205.445 676.484,205.421C570.117,205.02 427.151,203.753 403.43,203.538C403.211,219.222 402.359,285.806 402.56,360.062C402.611,379.005 402.926,398.442 403.203,417.664C403.933,468.39 405.099,517.566 405.572,552.067C405.839,571.548 405.958,586.34 406.008,594.069C428.967,594.11 514.501,594.271 600.036,594.568C700.04,594.914 800.041,595.445 800.041,595.445Z"/>
    </g>
    <g transform="matrix(0.999874,0,0,0.999874,-0.073637,18.6259)">
        <path d="M400.155,275.409C403.467,275.409 406.156,278.098 406.156,281.41C406.156,284.721 403.467,287.41 400.155,287.41L199.296,285.908C196.814,285.908 194.798,283.892 194.798,281.41C194.798,278.927 196.814,276.911 199.296,276.911L400.155,275.409Z"/>
    </g>
    <g transform="matrix(-0.999874,1.22449e-16,-1.22449e-16,-0.999874,1400.99,681.374)">
        <path d="M400.155,275.409C403.467,275.409 406.156,278.098 406.156,281.41C406.156,284.721 403.467,287.41 400.155,287.41L199.296,285.843C196.85,285.843 194.863,283.856 194.863,281.41C194.863,278.963 196.85,276.976 199.296,276.976L400.155,275.409Z"/>
    </g>
    <g transform="matrix(1,0,0,1,-0.483691,-20.4999)">
        <path d="M400.515,514.5C403.826,514.5 406.515,517.188 406.515,520.5C406.515,523.811 403.826,526.5 400.515,526.5L199.322,525.018C196.828,525.018 194.804,522.993 194.804,520.5C194.804,518.006 196.828,515.982 199.322,515.982L400.515,514.5Z"/>
    </g>
</svg>
