<?xml version="1.0" encoding="UTF-8" standalone="no"?>
<!DOCTYPE svg PUBLIC "-//W3C//DTD SVG 1.1//EN" "http://www.w3.org/Graphics/SVG/1.1/DTD/svg11.dtd">
<svg width="100%" height="100%" viewBox="0 0 1022 400" version="1.1" xmlns="http://www.w3.org/2000/svg" xmlns:xlink="http://www.w3.org/1999/xlink" xml:space="preserve" xmlns:serif="http://www.serif.com/" style="fill-rule:evenodd;clip-rule:evenodd;stroke-linejoin:round;stroke-miterlimit:2;">
    <g transform="matrix(0.99969,0,0,0.875209,-189.152,-149.751)">
        <path d="M800.041,600.005L800.041,600.068L400.031,600.068L400.031,200.058L794.964,200.058C796.651,200.016 798.35,199.846 800.041,199.995C910.819,209.74 1012.4,290.774 1000.05,400C987.638,509.686 910.427,600.005 800.041,600.005Z" style="fill-opacity:0;"/>
        <path d="M800.139,626.407C800.075,626.452 800.041,626.475 800.041,626.475C800.041,626.475 637.905,631.629 520.034,633.305C452.819,634.261 400.031,633.79 400.031,633.79C383.726,633.79 370.508,618.693 370.508,600.068C370.508,600.068 379.448,505.855 385.314,408.063C386.278,391.992 387.239,375.892 387.374,360.062C388.096,274.961 383.228,200.058 383.228,200.058C383.228,189.458 390.751,180.865 400.031,180.865C400.031,180.865 560.033,172.577 676.484,169.394C681.303,169.263 686.049,169.033 690.702,169.207C702.466,169.646 713.523,171.004 723.876,172.126C766.399,176.734 794.964,181.285 794.605,181.289L801.259,181.924C819.933,185.224 837.86,191.076 855.568,197.117C900.07,212.301 940.975,234.599 969.944,266.848C1002.59,303.189 1020.69,349.574 1015.75,402.317C1010.14,463.835 985.319,519.983 946.678,560.821C909.566,600.044 859.4,624.67 800.139,626.407ZM800.041,573.662L800.041,573.6C848.062,574.987 889.582,557.513 921.003,527.491C954.896,495.108 977.409,448.99 984.346,397.683C991.216,345.454 968.294,299.836 930.513,267.252C905.734,245.881 874.956,228.49 841.21,221.144C827.374,218.132 813.149,217.94 798.823,218.066L795.323,218.827C795.204,218.83 795.084,218.832 794.964,218.832C794.964,218.832 766.399,223.382 723.876,227.991C713.523,229.113 702.467,230.47 690.702,230.909C686.049,231.083 681.303,230.854 676.484,230.722C581.986,228.14 458.81,222.195 415.726,220.045C414.337,247.891 412.192,301.568 412.688,360.062C412.822,375.892 413.784,391.992 414.748,408.063C418.453,469.826 423.384,530.161 426.514,566.236C448.354,566.206 481.868,566.289 520.034,566.832C637.905,568.508 800.041,573.662 800.041,573.662Z"/>
    </g>
    <g transform="matrix(0.999874,0,0,0.999874,-189.35,-181.374)">
        <path d="M400.155,251.406C416.715,251.406 430.159,264.85 430.159,281.41C430.159,297.969 416.715,311.413 400.155,311.413L199.296,303.902C186.882,303.902 176.804,293.824 176.804,281.41C176.804,268.995 186.882,258.917 199.296,258.917L400.155,251.406Z"/>
    </g>
    <g transform="matrix(-0.999874,1.22449e-16,-1.22449e-16,-0.999874,1211.71,481.374)">
        <path d="M400.155,251.406C416.715,251.406 430.159,264.85 430.159,281.41C430.159,297.969 416.715,311.413 400.155,311.413L199.296,303.575C187.063,303.575 177.131,293.643 177.131,281.41C177.131,269.176 187.063,259.244 199.296,259.244L400.155,251.406Z"/>
    </g>
    <g transform="matrix(1,0,0,1,-189.76,-220.5)">
        <path d="M400.515,490.5C417.072,490.5 430.515,503.942 430.515,520.5C430.515,537.057 417.072,550.5 400.515,550.5L199.322,543.09C186.854,543.09 176.732,532.968 176.732,520.5C176.732,508.032 186.854,497.91 199.322,497.91L400.515,490.5Z"/>
    </g>
</svg>
