<?xml version="1.0" encoding="UTF-8" standalone="no"?>
<!DOCTYPE svg PUBLIC "-//W3C//DTD SVG 1.1//EN" "http://www.w3.org/Graphics/SVG/1.1/DTD/svg11.dtd">
<svg width="100%" height="100%" viewBox="0 0 1022 500" version="1.1" xmlns="http://www.w3.org/2000/svg" xmlns:xlink="http://www.w3.org/1999/xlink" xml:space="preserve" xmlns:serif="http://www.serif.com/" style="fill-rule:evenodd;clip-rule:evenodd;stroke-linejoin:round;stroke-miterlimit:2;">
    <g transform="matrix(0.99969,0,0,0.999667,-189.152,-149.868)">
        <path d="M800.041,600.005L800.041,600.068L400.031,600.068L400.031,200.058L794.964,200.058C796.651,200.016 798.35,199.846 800.041,199.995C910.819,209.74 1012.4,290.774 1000.05,400C987.638,509.686 910.427,600.005 800.041,600.005Z" style="fill-opacity:0;"/>
        <path d="M800.153,623.12C800.079,623.164 800.041,623.187 800.041,623.187C800.041,623.187 700.072,625.84 600.036,627.573C500.032,629.305 400.031,630.117 400.031,630.117C383.436,630.117 369.983,616.664 369.983,600.068C369.983,600.068 370.321,581.375 372.327,552.067C374.701,517.386 380.505,468.641 384.173,417.664C385.556,398.432 387.13,379.06 387.386,360.062C388.534,274.969 382.785,200.058 382.785,200.058C382.785,190.533 390.506,182.812 400.031,182.812C400.031,182.812 560.034,175.44 676.484,173.245C682.949,173.123 689.284,172.977 695.441,173.186C705.46,173.526 714.933,174.414 723.876,175.207C766.363,178.974 794.964,182.763 794.533,182.768L801.509,183.305C821.418,186.756 840.399,192.925 859.161,199.607C904.689,215.822 946.405,239.951 974.977,274.253C1004.07,309.182 1020.23,352.628 1015.68,401.769C1010.48,459.932 987.757,513.175 952.393,552.829C914.698,595.097 862.367,621.591 800.153,623.12ZM800.041,576.949L800.041,576.888C849.748,578.085 892.411,558.652 924.093,526.356C956.264,493.561 977.559,448.255 984.409,398.231C991.208,347.049 970.306,302.079 934.563,269.215C913.225,249.596 887.099,233.025 857.756,224.136C838.806,218.395 818.709,216.86 798.573,216.685L795.396,217.348C795.252,217.352 795.108,217.354 794.964,217.354C794.964,217.354 766.363,221.143 723.876,224.91C714.933,225.702 705.46,226.591 695.441,226.931C689.284,227.14 682.949,226.994 676.484,226.872C582.257,225.095 459.512,219.93 416.096,218.023C414.481,245.234 411.867,300.122 412.676,360.062C412.932,379.06 414.506,398.433 415.889,417.664C419.557,468.642 425.361,517.387 427.735,552.067C428.19,558.719 428.56,564.823 428.859,570.287C465.73,570.653 532.883,571.401 600.036,572.564C700.072,574.297 800.041,576.949 800.041,576.949Z"/>
    </g>
    <g transform="matrix(0.999874,0,0,0.999874,-189.35,-131.374)">
        <path d="M400.155,251.406C416.715,251.406 430.159,264.85 430.159,281.41C430.159,297.969 416.715,311.413 400.155,311.413L199.296,303.902C186.882,303.902 176.804,293.824 176.804,281.41C176.804,268.995 186.882,258.917 199.296,258.917L400.155,251.406Z"/>
    </g>
    <g transform="matrix(-0.537676,3.99023e-17,-6.58463e-17,-0.325827,1155.74,341.691)">
        <path d="M400.155,189.336C430.949,189.336 455.951,230.593 455.951,281.41C455.951,332.226 430.949,373.483 400.155,373.483L199.296,349.431C176.546,349.431 158.076,318.951 158.076,281.41C158.076,243.868 176.546,213.388 199.296,213.388L400.155,189.336Z"/>
    </g>
    <g transform="matrix(1,0,0,1,-189.76,-170.5)">
        <path d="M400.515,490.5C417.072,490.5 430.515,503.942 430.515,520.5C430.515,537.057 417.072,550.5 400.515,550.5L199.322,543.09C186.854,543.09 176.732,532.968 176.732,520.5C176.732,508.032 186.854,497.91 199.322,497.91L400.515,490.5Z"/>
    </g>
    <g transform="matrix(2.48444,0,0,2.48444,-1154.69,-775.092)">
        <path d="M836.653,412.604C836.653,426.429 825.429,437.652 811.605,437.652C797.781,437.652 786.558,426.429 786.558,412.604C786.558,398.78 797.781,387.557 811.605,387.557C825.429,387.557 836.653,398.78 836.653,412.604Z" style="fill:rgb(235,235,235);fill-opacity:0;"/>
        <path d="M841.113,412.604L842.69,412.604C842.604,421.156 839.108,428.889 833.443,434.442C827.813,439.96 820.102,443.38 811.605,443.295C803.163,443.211 795.529,439.756 790.047,434.163C784.6,428.606 781.225,420.993 781.309,412.604C781.392,404.271 784.804,396.736 790.325,391.325C795.81,385.948 803.326,382.619 811.605,382.702C819.83,382.785 827.265,386.154 832.606,391.603C837.912,397.016 841.195,404.434 841.113,412.604ZM830.615,412.604L832.192,412.604C832.136,406.95 829.766,401.862 826.02,398.19C822.31,394.554 817.205,392.356 811.605,392.412C806.06,392.467 801.071,394.795 797.47,398.469C793.904,402.107 791.752,407.114 791.807,412.604C791.861,418.041 794.147,422.931 797.749,426.461C801.314,429.956 806.223,432.063 811.605,432.009C816.933,431.955 821.723,429.712 825.183,426.182C828.607,422.689 830.668,417.878 830.615,412.604Z"/>
    </g>
</svg>
